<?xml version="1.0" encoding="UTF-8"?>
<svg id="Layer_1" data-name="Layer 1" xmlns="http://www.w3.org/2000/svg" viewBox="0 0 960 960">
  <defs>
    <style>
      .cls-1 {
        fill: #ec111a;
        stroke-width: 0px;
      }
    </style>
  </defs>
  <g id="surface1">
    <path class="cls-1" d="M236.77,453.67c-25.87-.04-46.86,20.94-46.88,46.82-.02,25.91,20.95,46.9,46.82,46.91,25.87,0,46.84-20.99,46.84-46.88s-20.94-46.84-46.79-46.86ZM236.77,521.17c-11.39-.07-20.57-9.38-20.52-20.79.05-11.39,9.32-20.61,20.72-20.59,11.39.04,20.63,9.29,20.63,20.7,0,5.5-2.2,10.79-6.11,14.68-3.9,3.88-9.2,6.04-14.71,6Z"/>
    <path class="cls-1" d="M343.23,455.88h-12.77v-27.63h-28.01v27.63h-12.77v25.38h12.77v63.86h28.01v-63.86h12.77v-25.38Z"/>
    <path class="cls-1" d="M356.04,455.88h27.97v89.2h-27.97v-89.2Z"/>
    <path class="cls-1" d="M370.04,412.67c-6.31-.02-12.03,3.77-14.46,9.62-2.43,5.82-1.11,12.55,3.36,17.03,4.46,4.48,11.19,5.82,17.02,3.41,5.84-2.41,9.65-8.11,9.65-14.44,0-8.6-6.95-15.6-15.57-15.62Z"/>
    <path class="cls-1" d="M771.22,479.94c9.18.04,16.62,7.47,16.64,16.67v48.62h27.97v-52.08c0-23.67-13.68-39.1-35.3-39.1-8.89,0-18.25,3.88-25.96,16.38v-14.2h-28.01v89h27.77v-48.62c0-4.46,1.8-8.73,4.97-11.86,3.17-3.12,7.46-4.86,11.92-4.81Z"/>
    <path class="cls-1" d="M917.77,545.12l-34.34-44.59,31.93-44.65h-32.69l-25.69,36.14v-77.12h-27.96v130.22h27.96v-36.77l28.19,36.77h32.6Z"/>
    <path class="cls-1" d="M93.73,521.08c2.14-5.21,3.17-10.81,3.03-16.44.2-8.27-2.65-16.35-8-22.68-5.97-6.57-16.18-12.03-30.33-16.18-2.74-.71-5.41-1.67-7.98-2.85-2.23-1.09-4.23-2.58-5.91-4.39-1.76-2-2.68-4.59-2.56-7.26.05-3.88,2.23-7.44,5.68-9.23,7.06-3.1,15.09-3.1,22.13,0,3.14,1.14,6.15,2.56,9.03,4.23l11.88-23.67c-5.32-3.28-11.03-5.81-17.03-7.53-6.19-1.6-12.54-2.41-18.92-2.41-6.08-.11-12.12.89-17.83,2.94-5.08,1.98-9.71,5.01-13.57,8.85-3.88,3.88-6.97,8.51-9.03,13.59-2.05,5.22-3.07,10.81-3.03,16.42.33,8.96,4.12,17.43,10.54,23.67,6.13,5.37,13.32,9.4,21.1,11.79,3.7,1.42,7.8,2.68,10.41,3.68,2.68,1.02,5.26,2.3,7.66,3.88,1.72,1.23,3.12,2.85,4.08,4.73.83,1.8,1.14,3.77.89,5.73-.27,2.98-1.71,5.73-3.97,7.67-3.72,2.7-8.29,3.95-12.86,3.54-5.41-.15-10.72-1.42-15.62-3.74-4.28-2.05-8.44-4.35-12.45-6.91l-14.19,24.38c11.19,9.2,25.18,14.3,39.64,14.44,7.17,0,14.3-1.12,21.1-3.36,5.86-1.96,11.28-4.99,16-8.94,4.32-3.9,7.76-8.65,10.12-13.97Z"/>
    <path class="cls-1" d="M937.51,513.94c-6.33-.04-12.05,3.74-14.5,9.56s-1.14,12.55,3.3,17.05,11.16,5.86,17.02,3.47c5.84-2.41,9.67-8.09,9.69-14.42.02-8.6-6.91-15.6-15.51-15.66ZM937.51,542c-5.06.02-9.63-3.01-11.57-7.67-1.96-4.68-.89-10.05,2.67-13.64,3.57-3.59,8.94-4.66,13.62-2.72,4.66,1.92,7.71,6.48,7.71,11.54.02,3.32-1.29,6.49-3.63,8.83-2.32,2.34-5.5,3.66-8.8,3.66Z"/>
    <path class="cls-1" d="M937.46,532.11h-2.5v5.91h-3.03v-17.03h6.48c3.14,0,5.68,2.54,5.68,5.68-.05,2.14-1.32,4.06-3.27,4.97l3.59,6.39h-3.68l-3.27-5.91ZM934.95,529.27h3.59c1.43,0,2.59-1.16,2.59-2.59s-1.16-2.61-2.59-2.61h-3.59v5.21Z"/>
    <path class="cls-1" d="M170.32,513.46c-7.13,8.89-20.1,10.32-28.99,3.21-8.89-7.13-10.34-20.12-3.23-29.01,7.13-8.91,20.1-10.34,28.99-3.23,1.18.94,2.27,2.01,3.23,3.17l18.49-18.56c-8.83-9.76-21.41-15.31-34.58-15.29-25.78-.09-48.02,18.32-48.02,46.73s22.48,46.86,48.26,46.86c13.19,0,25.76-5.57,34.63-15.33l-18.78-18.56Z"/>
    <path class="cls-1" d="M493.42,545.23v-89.35h-27.25v9.47l-2.56-2.21c-6.35-6.1-14.84-9.51-23.64-9.47-24.09,0-44.43,21.44-44.43,46.82s20.39,46.86,44.43,46.86c8.8.02,17.29-3.37,23.64-9.47l2.56-2.23v9.47l27.25.11ZM444.51,521.56c-11.65-.07-21.03-9.58-20.95-21.23.05-11.65,9.52-21.04,21.17-21.01,11.65.05,21.04,9.52,21.03,21.17-.02,5.61-2.27,10.99-6.26,14.95-3.97,3.95-9.38,6.15-14.98,6.11Z"/>
    <path class="cls-1" d="M713.17,545.23v-89.35h-27.25v9.47l-2.56-2.21c-6.37-6.1-14.84-9.49-23.66-9.47-24.07,0-44.41,21.44-44.41,46.82s20.39,46.86,44.41,46.86c8.82.02,17.29-3.37,23.66-9.47l2.56-2.23v9.47l27.25.11ZM664.44,521.56c-11.67.02-21.13-9.42-21.15-21.08s9.43-21.13,21.1-21.15c11.65,0,21.1,9.45,21.1,21.12s-9.42,21.08-21.04,21.12Z"/>
    <path class="cls-1" d="M535.2,545.23v-9.47l2.5,2.21c6.37,6.1,14.84,9.49,23.66,9.47,24.07,0,44.41-21.44,44.41-46.86s-20.34-46.82-44.41-46.82c-8.82-.02-17.29,3.37-23.66,9.47l-2.5,2.23v-50.56h-27.3v130.33h27.3ZM535.76,500.58c-.05-8.56,5.04-16.29,12.93-19.61,7.87-3.32,16.96-1.54,23.04,4.48,6.06,6.02,7.89,15.13,4.63,23.04-3.25,7.89-10.96,13.06-19.5,13.06-11.63,0-21.06-9.43-21.1-21.06v.09Z"/>
  </g>
</svg>
